<svg width="17" height="16" viewBox="0 0 17 16" fill="none" xmlns="http://www.w3.org/2000/svg">
<path fill-rule="evenodd" clip-rule="evenodd" d="M0.631729 8C0.631729 7.44772 1.07944 7 1.63173 7H15.6317C16.184 7 16.6317 7.44772 16.6317 8C16.6317 8.55228 16.184 9 15.6317 9H1.63173C1.07944 9 0.631729 8.55228 0.631729 8Z" fill="#454950"/>
<path fill-rule="evenodd" clip-rule="evenodd" d="M7.92462 0.292893C8.31515 -0.0976311 8.94831 -0.0976311 9.33884 0.292893L16.3388 7.29289C16.7294 7.68342 16.7294 8.31658 16.3388 8.70711L9.33884 15.7071C8.94831 16.0976 8.31515 16.0976 7.92462 15.7071C7.5341 15.3166 7.5341 14.6834 7.92462 14.2929L14.2175 8L7.92462 1.70711C7.5341 1.31658 7.5341 0.683417 7.92462 0.292893Z" fill="#454950"/>
</svg>
