<svg width="25" height="23" viewBox="0 0 25 23" fill="none" xmlns="http://www.w3.org/2000/svg">
<path fill-rule="evenodd" clip-rule="evenodd" d="M7.63171 21C7.63171 19.8954 8.52714 19 9.63171 19C10.7363 19 11.6317 19.8954 11.6317 21C11.6317 22.1046 10.7363 23 9.63171 23C8.52714 23 7.63171 22.1046 7.63171 21Z" fill="#5D6066"/>
<path fill-rule="evenodd" clip-rule="evenodd" d="M18.6317 21C18.6317 19.8954 19.5271 19 20.6317 19C21.7363 19 22.6317 19.8954 22.6317 21C22.6317 22.1046 21.7363 23 20.6317 23C19.5271 23 18.6317 22.1046 18.6317 21Z" fill="#5D6066"/>
<path fill-rule="evenodd" clip-rule="evenodd" d="M0.631714 1C0.631714 0.447715 1.07943 0 1.63171 0H5.63171C6.10834 0 6.51872 0.336385 6.61227 0.803743L7.45214 5H23.6317C23.9297 5 24.2122 5.13293 24.4022 5.36256C24.5922 5.59218 24.6698 5.89458 24.614 6.18733L23.0126 14.5848C22.8754 15.2754 22.4997 15.8958 21.9512 16.3373C21.4055 16.7766 20.7233 17.011 20.0231 17H10.3204C9.62009 17.011 8.93792 16.7766 8.39219 16.3373C7.84396 15.8959 7.46835 15.2759 7.33104 14.5857C7.33099 14.5854 7.3311 14.5859 7.33104 14.5857L5.6605 6.2392C5.65373 6.21159 5.6481 6.18353 5.64367 6.15508L4.81203 2H1.63171C1.07943 2 0.631714 1.55228 0.631714 1ZM7.85244 7L9.29255 14.1952C9.33828 14.4254 9.46351 14.6322 9.64633 14.7793C9.82914 14.9265 10.0579 15.0047 10.2926 15.0002L10.3117 15H20.0317L20.0509 15.0002C20.2855 15.0047 20.5143 14.9265 20.6971 14.7793C20.8791 14.6328 21.004 14.4273 21.0502 14.1984L22.423 7H7.85244Z" fill="#5D6066"/>
</svg>
