<svg width="23" height="18" viewBox="0 0 23 18" fill="none" xmlns="http://www.w3.org/2000/svg">
<path fill-rule="evenodd" clip-rule="evenodd" d="M3.63171 2C3.084 2 2.63171 2.45228 2.63171 3V15C2.63171 15.5477 3.084 16 3.63171 16H19.6317C20.1794 16 20.6317 15.5477 20.6317 15V3C20.6317 2.45228 20.1794 2 19.6317 2H3.63171ZM0.631714 3C0.631714 1.34772 1.97943 0 3.63171 0H19.6317C21.284 0 22.6317 1.34772 22.6317 3V15C22.6317 16.6523 21.284 18 19.6317 18H3.63171C1.97943 18 0.631714 16.6523 0.631714 15V3Z" fill="#5D6066"/>
<path fill-rule="evenodd" clip-rule="evenodd" d="M0.812507 2.42662C1.12922 1.97417 1.75275 1.86414 2.2052 2.18085L11.6317 8.77943L21.0583 2.18085C21.5107 1.86414 22.1343 1.97417 22.451 2.42662C22.7677 2.87907 22.6576 3.5026 22.2052 3.81932L12.2052 10.8193C11.8609 11.0603 11.4026 11.0603 11.0583 10.8193L1.05828 3.81932C0.605827 3.5026 0.495792 2.87907 0.812507 2.42662Z" fill="#5D6066"/>
</svg>
