<svg width="21" height="24" viewBox="0 0 21 24" fill="none" xmlns="http://www.w3.org/2000/svg">
<path fill-rule="evenodd" clip-rule="evenodd" d="M10.6317 2C8.50998 2 6.47515 2.84285 4.97486 4.34315C3.47457 5.84344 2.63171 7.87827 2.63171 10C2.63171 13.0981 4.64745 16.1042 6.85767 18.4373C7.94233 19.5822 9.03038 20.5195 9.84839 21.1708C10.1528 21.4133 10.4187 21.6152 10.6317 21.7726C10.8447 21.6152 11.1106 21.4133 11.415 21.1708C12.233 20.5195 13.3211 19.5822 14.4058 18.4373C16.616 16.1042 18.6317 13.0981 18.6317 10C18.6317 7.87827 17.7889 5.84344 16.2886 4.34315C14.7883 2.84285 12.7534 2 10.6317 2ZM10.6317 23C10.077 23.8321 10.0768 23.8319 10.0765 23.8317L10.0736 23.8298L10.0669 23.8253L10.044 23.8098C10.0246 23.7966 9.99679 23.7776 9.96127 23.753C9.89024 23.7038 9.78818 23.6321 9.6595 23.5392C9.40226 23.3534 9.03807 23.0822 8.60254 22.7354C7.73305 22.043 6.5711 21.0428 5.40576 19.8127C3.11598 17.3958 0.631714 13.9019 0.631714 10C0.631714 7.34784 1.68528 4.8043 3.56065 2.92893C5.43601 1.05357 7.97955 0 10.6317 0C13.2839 0 15.8274 1.05357 17.7028 2.92893C19.5781 4.8043 20.6317 7.34784 20.6317 10C20.6317 13.9019 18.1475 17.3958 15.8577 19.8127C14.6923 21.0428 13.5304 22.043 12.6609 22.7354C12.2254 23.0822 11.8612 23.3534 11.6039 23.5392C11.4753 23.6321 11.3732 23.7038 11.3022 23.753C11.2666 23.7776 11.2389 23.7966 11.2194 23.8098L11.1965 23.8253L11.1898 23.8298L11.1877 23.8312C11.1874 23.8314 11.1864 23.8321 10.6317 23ZM10.6317 23L11.1864 23.8321C10.8505 24.056 10.4124 24.0556 10.0765 23.8317L10.6317 23Z" fill="#5D6066"/>
<path fill-rule="evenodd" clip-rule="evenodd" d="M10.6317 8C9.52714 8 8.63171 8.89543 8.63171 10C8.63171 11.1046 9.52714 12 10.6317 12C11.7363 12 12.6317 11.1046 12.6317 10C12.6317 8.89543 11.7363 8 10.6317 8ZM6.63171 10C6.63171 7.79086 8.42257 6 10.6317 6C12.8409 6 14.6317 7.79086 14.6317 10C14.6317 12.2091 12.8409 14 10.6317 14C8.42257 14 6.63171 12.2091 6.63171 10Z" fill="#5D6066"/>
</svg>
