<svg width="21" height="22" viewBox="0 0 21 22" fill="none" xmlns="http://www.w3.org/2000/svg">
<path fill-rule="evenodd" clip-rule="evenodd" d="M9.13386 0.402641C9.58939 0.140138 10.1059 0.00195312 10.6317 0.00195312C11.1575 0.00195312 11.6741 0.140149 12.1296 0.402673C12.1303 0.403074 12.131 0.403475 12.1317 0.403877L19.1317 4.40387C19.5873 4.66692 19.9657 5.04515 20.229 5.50062C20.4923 5.95609 20.6312 6.47279 20.6317 6.99888V15.0009C20.6312 15.527 20.4923 16.0437 20.229 16.4992C19.9657 16.9547 19.5873 17.3329 19.1317 17.5959L19.1279 17.5981L12.1317 21.5959C12.1311 21.5963 12.1305 21.5966 12.13 21.5969C11.6907 21.8503 11.2288 21.9999 10.6317 21.9999C10.0346 21.9999 9.5728 21.8503 9.13353 21.597C9.13292 21.5966 9.13232 21.5963 9.13171 21.5959L2.13557 17.5981L2.13171 17.5959C1.67611 17.3329 1.29768 16.9547 1.03441 16.4992C0.771128 16.0437 0.632253 15.527 0.631714 15.0009V6.99888C0.632253 6.47279 0.771128 5.95609 1.03441 5.50062C1.29768 5.04515 1.67611 4.66692 2.13171 4.40388L2.13557 4.40165L9.13386 0.402641ZM10.6317 2.00195C10.4562 2.00195 10.2837 2.04816 10.1317 2.13593L10.1279 2.13815L3.13171 6.13593C3.13119 6.13623 3.13066 6.13654 3.13014 6.13684C2.97897 6.22448 2.8534 6.35021 2.76594 6.50151C2.67826 6.65321 2.63197 6.82528 2.63171 7.0005V14.9993C2.63197 15.1745 2.67826 15.3466 2.76594 15.4983C2.8534 15.6496 2.97897 15.7753 3.13014 15.863C3.13066 15.8633 3.13119 15.8636 3.13171 15.8639L10.1317 19.8639C10.3 19.961 10.4206 19.9999 10.6317 19.9999C10.8428 19.9999 10.9635 19.961 11.1317 19.8639L11.1356 19.8617L18.1317 15.8639C18.1322 15.8636 18.1328 15.8633 18.1333 15.863C18.2845 15.7753 18.41 15.6496 18.4975 15.4983C18.5852 15.3465 18.6315 15.1742 18.6317 14.9989V7.00093C18.6315 6.82556 18.5852 6.65333 18.4975 6.50151C18.41 6.35021 18.2845 6.22449 18.1333 6.13685C18.1328 6.13654 18.1322 6.13623 18.1317 6.13593L11.1317 2.13594C10.9797 2.04817 10.8073 2.00195 10.6317 2.00195Z" fill="#5D6066"/>
<path fill-rule="evenodd" clip-rule="evenodd" d="M1.03609 5.45916C1.31264 4.9811 1.92436 4.81773 2.40242 5.09428L10.6317 9.85462L18.861 5.09428C19.339 4.81773 19.9508 4.9811 20.2273 5.45916C20.5038 5.93722 20.3405 6.54895 19.8624 6.82549L11.1324 11.8755C10.8227 12.0547 10.4407 12.0547 10.131 11.8755L1.40098 6.82549C0.922916 6.54895 0.759552 5.93722 1.03609 5.45916Z" fill="#5D6066"/>
</svg>
