<svg width="21" height="20" viewBox="0 0 21 20" fill="none" xmlns="http://www.w3.org/2000/svg">
<path fill-rule="evenodd" clip-rule="evenodd" d="M9.63171 2C5.76572 2 2.63171 5.13401 2.63171 9C2.63171 12.866 5.76572 16 9.63171 16C13.4977 16 16.6317 12.866 16.6317 9C16.6317 5.13401 13.4977 2 9.63171 2ZM0.631714 9C0.631714 4.02944 4.66115 0 9.63171 0C14.6023 0 18.6317 4.02944 18.6317 9C18.6317 13.9706 14.6023 18 9.63171 18C4.66115 18 0.631714 13.9706 0.631714 9Z" fill="#5D6066"/>
<path fill-rule="evenodd" clip-rule="evenodd" d="M14.5746 13.9428C14.9651 13.5523 15.5983 13.5523 15.9888 13.9428L20.3388 18.2928C20.7293 18.6833 20.7293 19.3165 20.3388 19.707C19.9483 20.0975 19.3151 20.0975 18.9246 19.707L14.5746 15.357C14.1841 14.9665 14.1841 14.3333 14.5746 13.9428Z" fill="#5D6066"/>
</svg>
