<svg width="19" height="20" viewBox="0 0 19 20" fill="none" xmlns="http://www.w3.org/2000/svg">
<path fill-rule="evenodd" clip-rule="evenodd" d="M2.09618 13.4645C3.03386 12.5268 4.30563 12 5.63171 12H13.6317C14.9578 12 16.2296 12.5268 17.1672 13.4645C18.1049 14.4021 18.6317 15.6739 18.6317 17V19C18.6317 19.5523 18.184 20 17.6317 20C17.0794 20 16.6317 19.5523 16.6317 19V17C16.6317 16.2044 16.3156 15.4413 15.753 14.8787C15.1904 14.3161 14.4274 14 13.6317 14H5.63171C4.83606 14 4.073 14.3161 3.51039 14.8787C2.94778 15.4413 2.63171 16.2044 2.63171 17V19C2.63171 19.5523 2.184 20 1.63171 20C1.07943 20 0.631714 19.5523 0.631714 19V17C0.631714 15.6739 1.1585 14.4021 2.09618 13.4645Z" fill="#5D6066"/>
<path fill-rule="evenodd" clip-rule="evenodd" d="M9.63171 2C7.97486 2 6.63171 3.34315 6.63171 5C6.63171 6.65685 7.97486 8 9.63171 8C11.2886 8 12.6317 6.65685 12.6317 5C12.6317 3.34315 11.2886 2 9.63171 2ZM4.63171 5C4.63171 2.23858 6.87029 0 9.63171 0C12.3931 0 14.6317 2.23858 14.6317 5C14.6317 7.76142 12.3931 10 9.63171 10C6.87029 10 4.63171 7.76142 4.63171 5Z" fill="#5D6066"/>
</svg>
